<svg width="1465" height="1515" viewBox="0 0 1465 1515" fill="none" xmlns="http://www.w3.org/2000/svg">
<path d="M444.428 311.473L632.846 856.536M632.846 856.536L619.225 1390.96M632.846 856.536L29 1268.66M632.846 856.536L1220.8 893.76M632.846 856.536L959.74 19M632.846 856.536L1441 1292.59M632.846 856.536L312.762 1428.19M632.846 856.536L58.5113 348.697M632.846 856.536L1184.48 463.027M632.846 856.536L135.695 811.336M632.846 856.536L959.74 1492" stroke="white" stroke-width="100"/>
<path d="M444.428 311.473L632.846 856.536M632.846 856.536L619.225 1390.96M632.846 856.536L29 1268.66M632.846 856.536L1220.8 893.76M632.846 856.536L959.74 19M632.846 856.536L1441 1292.59M632.846 856.536L312.762 1428.19M632.846 856.536L58.5113 348.697M632.846 856.536L1184.48 463.027M632.846 856.536L135.695 811.336M632.846 856.536L959.74 1492" stroke="#00503F" stroke-opacity="0.08" stroke-width="100"/>
</svg>
