<svg width="410" height="400" viewBox="0 0 410 400" fill="none" xmlns="http://www.w3.org/2000/svg">
<path d="M156.846 282.551L168.056 355.756C169.673 366.316 184.499 367.323 187.53 357.079L211.567 275.836C213.195 270.331 219.113 267.325 224.518 269.255L321.475 303.871C331.425 307.423 339.369 295.126 332.04 287.516L270.126 223.23C265.702 218.637 266.649 211.134 272.075 207.784L363.074 151.597C372.52 145.764 366.848 131.182 355.943 133.265L250.644 153.387C244.48 154.564 238.767 149.84 238.767 143.564L238.767 43.5331C238.767 32.9153 224.403 29.6158 219.769 39.1692L167.286 147.379C165.017 152.058 159.541 154.217 154.689 152.345L46.2105 110.497C36.0313 106.57 27.8159 119.46 35.6742 127.029L118.147 206.462C122.471 210.627 122.176 217.637 117.517 221.424L50.8076 275.646C42.6263 282.296 48.974 295.442 59.2694 293.171L144.807 274.3C150.45 273.055 155.971 276.839 156.846 282.551Z" fill="#00503F"/>
<path d="M227.432 165.08L226.592 172.88L210.632 194C220.112 196.4 225.752 203.48 225.752 213.32C225.752 231.08 210.632 243.92 190.112 243.92C171.752 243.92 160.592 233.72 161.912 219.32L184.592 215.36C183.872 220.28 186.992 223.64 192.032 223.64C197.192 223.64 201.272 219.44 201.272 214.16C201.272 209.96 198.392 207.08 193.712 207.08C190.472 207.08 187.592 208.16 185.552 209.48L181.832 201.56L195.272 184.16H169.232L171.512 165.08H227.432Z" fill="white"/>
</svg>
