<svg width="400" height="410" viewBox="0 0 400 410" fill="none" xmlns="http://www.w3.org/2000/svg">
<path d="M282.551 252.417L355.756 241.207C366.316 239.59 367.323 224.764 357.079 221.734L275.836 197.696C270.331 196.068 267.325 190.151 269.255 184.745L303.871 87.7885C307.423 77.8385 295.126 69.8944 287.516 77.2234L223.23 139.138C218.637 143.561 211.134 142.614 207.784 137.189L151.597 46.1893C145.764 36.7433 131.182 42.4157 133.266 53.3199L153.387 158.619C154.564 164.783 149.84 170.496 143.564 170.496L43.5331 170.496C32.9153 170.496 29.6158 184.86 39.1692 189.494L147.379 241.977C152.058 244.246 154.217 249.722 152.345 254.574L110.497 363.053C106.57 373.232 119.46 381.447 127.029 373.589L206.462 291.117C210.627 286.792 217.637 287.087 221.424 291.746L275.646 358.456C282.296 366.637 295.442 360.289 293.171 349.994L274.3 264.456C273.055 258.813 276.839 253.292 282.551 252.417Z" fill="#00503F"/>
<path d="M176.448 193.472C178.728 178.112 192.048 167.912 209.928 167.912C227.088 167.912 237.168 176.672 237.168 189.632C237.168 203.192 227.448 212.312 222.528 216.752L210.528 227.552H234.168L231.768 246.632H169.608L170.688 237.752L205.008 205.352C208.488 202.112 212.208 198.392 212.208 193.472C212.208 189.872 209.208 187.592 205.368 187.592C199.848 187.592 196.608 192.032 196.608 196.592L176.448 193.472Z" fill="white"/>
</svg>
