<svg width="410" height="400" viewBox="0 0 410 400" fill="none" xmlns="http://www.w3.org/2000/svg">
<path d="M239.417 117.449L228.207 44.2442C226.59 33.6841 211.764 32.6766 208.734 42.9208L184.696 124.164C183.068 129.669 177.151 132.675 171.745 130.745L74.7885 96.1293C64.8385 92.5769 56.8944 104.874 64.2234 112.484L126.138 176.77C130.561 181.363 129.614 188.866 124.189 192.216L33.1893 248.403C23.7434 254.236 29.4157 268.818 40.3199 266.734L145.619 246.613C151.783 245.436 157.496 250.16 157.496 256.436V356.467C157.496 367.085 171.86 370.384 176.494 360.831L228.977 252.621C231.246 247.942 236.722 245.783 241.574 247.655L350.053 289.503C360.232 293.43 368.447 280.54 360.589 272.971L278.117 193.538C273.792 189.373 274.087 182.363 278.746 178.576L345.456 124.354C353.637 117.704 347.289 104.558 336.994 106.829L251.456 125.7C245.813 126.945 240.292 123.161 239.417 117.449Z" fill="#00503F"/>
<path d="M174 186.44L176.04 169.76H178.68C191.04 169.76 199.2 163.4 206.52 153.08H220.8L211.32 230H187.56L192.96 186.44H174Z" fill="white"/>
</svg>
