<svg width="242" height="274" viewBox="0 0 242 274" fill="none" xmlns="http://www.w3.org/2000/svg">
<path d="M170.902 134.92C127.372 119.585 100.553 146.893 123.18 167.01M220.539 207.884C212.185 218.003 196.235 225.148 167.892 223.45C141.039 221.843 127.262 212.824 121.284 202.001M220.539 207.884C224.551 226.243 218.794 262.185 165.074 257.411C151.833 256.235 141.959 253.318 134.719 249.332M220.539 207.884C229.966 196.465 228.755 179.208 225.674 168.527M121.284 202.001C114.792 190.248 118.009 175.858 123.18 167.01M121.284 202.001C115.075 214.971 112.584 237.146 134.719 249.332M49.2954 113.345C53.6874 113.345 57.6918 112.839 61.358 111.9M136.105 248.907C135.643 249.052 135.181 249.193 134.719 249.332M61.358 111.9C110.733 99.2509 97.9682 4.03329 145.568 8.12828C194.454 12.334 151.541 104.933 151.541 104.933C179.74 100.797 232.397 107.162 233.951 142.49C234.438 153.552 231.266 162.111 225.674 168.527M61.358 111.9C61.358 111.9 56.3406 95.2658 42.45 94.1871C-8.03647 90.2665 2.67677 255.732 37.9667 264.737C64.0871 271.402 71.478 249.526 71.478 249.526M71.478 249.526C63.6958 246.65 57.1939 242.54 51.9282 237.292M71.478 249.526C88.2873 255.738 112.363 256.02 134.719 249.332M225.674 168.527C203.19 194.327 147.118 188.292 123.18 167.01" stroke="#96FF00" stroke-width="16"/>
</svg>
