<svg width="50" height="53" viewBox="0 0 50 53" fill="none" xmlns="http://www.w3.org/2000/svg">
<path d="M10.7326 28.2691L5.02824 29.5269L3 21.2838L24.3599 15.5967M10.7326 28.2691L14.1689 50L30.8702 47.1245M10.7326 28.2691L26.5732 24.7764M42.4138 21.2838L47.0507 20.2614L44.9591 10.1652L24.3599 15.5967M42.4138 21.2838L47.5714 44.249L30.8702 47.1245M42.4138 21.2838L26.5732 24.7764M24.3599 15.5967L26.5732 24.7764M24.3599 15.5967C23.1556 8.82328 18.0216 1.15528 13.5215 5.30877C8.34175 10.0895 17.261 17.4867 24.3599 15.5967ZM24.3599 15.5967C23.1329 8.69547 26.4261 -0.0563268 31.5854 2.43328C37.5444 5.30876 31.1101 13.7994 24.3599 15.5967ZM26.5732 24.7764L30.8702 47.1245" stroke="#0000C2" stroke-width="4"/>
</svg>
