<svg width="396" height="295" viewBox="0 0 396 295" fill="none" xmlns="http://www.w3.org/2000/svg">
<path d="M245.683 0.968707C216.148 0.110391 219.054 64.8412 189.52 63.9641C171.401 63.426 166.972 34.9743 149.505 39.8189C132.845 44.44 139.277 66.4264 126.527 78.2603C91.4927 110.777 30.6643 13.2264 6.00784 60.9056C-29.8011 130.151 119.913 115.374 100.698 167.881C90.2099 196.543 33.5037 189.297 42.2395 218.654C55.3773 262.804 122.235 192.361 154.718 222.676C176.442 242.949 154.482 285.609 182.739 293.975C215.656 303.721 207.603 240.925 237.892 224.813C291.904 196.08 347.809 319 387.454 271.888C427.192 224.664 302.985 188.682 318.161 128.352C325.523 99.0875 379.073 92.5341 364.763 65.9666C349.591 37.7992 307.852 87.852 279.422 73.9606C251.165 60.1534 276.955 1.87752 245.683 0.968707Z" fill="#96FF00"/>
</svg>
