<svg width="81" height="64" viewBox="0 0 81 64" fill="none" xmlns="http://www.w3.org/2000/svg">
<path d="M55.0439 0.0487529C48.7002 -0.927274 47.5903 13.0864 41.2471 12.1063C37.3558 11.5051 37.1641 5.2611 33.269 5.83616C29.5535 6.38469 30.3504 11.2904 27.2844 13.4966C18.8599 19.5585 8.364 -3.07267 1.76986 6.53158C-7.8069 20.48 24.8631 21.3096 19.3125 32.099C16.2827 37.9885 4.25301 34.9094 5.34868 41.4636C6.99645 51.3205 23.2985 37.9462 29.4876 45.3428C33.6267 50.2894 27.7484 58.8853 33.6155 61.4434C40.4498 64.4234 40.3983 50.6886 47.3598 48.0311C59.774 43.2922 68.528 71.2533 78.3378 62.1726C88.171 53.0704 62.361 41.9964 67.2509 29.4146C69.6229 23.3115 81.3423 23.3353 78.9702 17.2322C76.4552 10.7617 66.115 20.4193 60.3591 16.667C54.6381 12.9374 61.7608 1.08219 55.0439 0.0487529Z" fill="#96FF00"/>
</svg>
