<svg width="228" height="201" viewBox="0 0 228 201" fill="none" xmlns="http://www.w3.org/2000/svg">
<path d="M179.412 1.7262C154.532 -10.4894 153.686 46.0352 126.153 48.8286C96.0411 51.8835 92.9483 -11.76 63.9892 6.49962C38.7157 22.4353 88.0525 55.5774 72.8935 81.3292C57.4951 107.488 -0.968957 76.8492 0.012204 107.236C1.33201 148.11 70.6739 93.0513 90.1795 123.25C106.355 148.293 52.1422 184.97 84.5732 199.556C112.712 212.212 100.553 137.561 131.292 135.497C152.55 134.069 164.047 176.273 179.412 161.403C196.164 145.193 156.489 130.967 163.528 111.946C172.67 87.2396 228 119.933 228 93.5759C228 67.2191 178.106 97.1021 163.528 75.2059C147.291 50.8183 205.62 14.5937 179.412 1.7262Z" fill="#96FF00"/>
</svg>
