<svg width="180" height="159" viewBox="0 0 180 159" fill="none" xmlns="http://www.w3.org/2000/svg">
<path d="M38.3586 157.634C58.0007 167.298 58.6688 122.584 80.4056 120.374C104.178 117.958 106.62 168.303 129.482 153.859C149.435 141.253 110.485 115.036 122.452 94.6649C134.609 73.9724 180.765 98.2089 179.99 74.1719C178.948 41.8385 124.205 85.3923 108.806 61.5034C96.0358 41.6934 138.835 12.6804 113.232 1.14213C91.0166 -8.86921 100.616 50.183 76.3484 51.8159C59.5654 52.9451 50.4895 19.5603 38.3586 31.3228C25.1337 44.1461 56.4558 55.3992 50.8989 70.4459C43.6812 89.9896 -6.96481e-06 64.1279 -8.78752e-06 84.9773C-1.06102e-05 105.827 39.3897 82.1879 50.8989 99.5087C63.7177 118.8 17.6683 147.456 38.3586 157.634Z" fill="#96FF00"/>
</svg>
