<svg width="73" height="64" viewBox="0 0 73 64" fill="none" xmlns="http://www.w3.org/2000/svg">
<path d="M56.818 0.549635C48.9388 -3.33991 48.6708 14.658 39.9513 15.5474C30.4152 16.5201 29.4357 -3.74449 20.2647 2.06953C12.2608 7.14359 27.8853 17.6963 23.0846 25.8959C18.2081 34.225 -0.306858 24.4694 0.00386488 34.1447C0.421834 47.1593 22.3817 29.6283 28.5589 39.2439C33.6814 47.2177 16.5129 58.8959 26.7834 63.5403C35.6948 67.57 31.844 43.8005 41.5788 43.1433C48.3111 42.6888 51.9518 56.1267 56.818 51.3921C62.123 46.2305 49.5585 41.7009 51.7876 35.6444C54.6829 27.7778 72.2051 38.1875 72.2051 29.7953C72.2051 21.4031 56.4044 30.9181 51.7876 23.9462C46.6454 16.1809 65.1177 4.64675 56.818 0.549635Z" fill="#96FF00"/>
</svg>
