<svg width="129" height="12" viewBox="0 0 129 12" fill="none" xmlns="http://www.w3.org/2000/svg">
<path fill-rule="evenodd" clip-rule="evenodd" d="M50.3949 0C46.6148 0 43.9759 2.40713 43.9759 6.00891C43.9759 9.6107 46.5791 12 50.3949 12C54.2106 12 56.8139 9.6107 56.8139 6.00891C56.8139 2.40713 54.175 0 50.3949 0ZM50.3949 8.86181C48.7901 8.86181 47.7381 7.72065 47.7381 6.00891C47.7381 4.29718 48.7901 3.15602 50.3949 3.15602C51.9996 3.15602 53.0516 4.29718 53.0516 6.00891C53.0516 7.72065 51.9996 8.86181 50.3949 8.86181ZM57.7336 11.7147V0.285315H64.4914C67.2016 0.285315 69.0203 1.6761 69.0203 4.13673C69.0203 5.79497 68.0753 7.04312 66.5597 7.59586L69.5731 11.7147H65.3472L62.6191 7.95248H61.3353V11.7147H57.7336ZM61.3353 5.49185H63.6177C64.741 5.49185 65.2581 5.08175 65.2581 4.35069C65.2581 3.58398 64.6697 3.22737 63.6177 3.22737H61.3353V5.49185ZM71.3011 0.285315V3.4235H75.1347V11.7147H78.7365V3.4235H82.5701V0.285315H71.3011ZM83.2878 11.7147V0.285315H90.0456C92.7558 0.285315 94.5745 1.6761 94.5745 4.13673C94.5745 5.79497 93.6295 7.04312 92.1139 7.59586L95.1273 11.7147H90.9014L88.1733 7.95248H86.8895V11.7147H83.2878ZM86.8895 5.49185H89.1719C90.2952 5.49185 90.8123 5.08175 90.8123 4.35069C90.8123 3.58398 90.2239 3.22737 89.1719 3.22737H86.8895V5.49185ZM118.68 11.7147V0.285315H122.318V8.57655H128.22V11.7147H118.68ZM105.661 11.7148L104.948 10.324H99.9557L99.2424 11.7148H95.3197L101.311 0.285339H103.611L109.584 11.7148H105.661ZM118.357 11.7148H109.584L109.584 8.57657H112.17V3.42353H109.584V0.285339H118.357V3.42353H115.771V8.57657H118.357V11.7148ZM101.311 7.68504H103.593L102.452 5.43839L101.311 7.68504ZM30.6489 0.285315H34.9104L37.8346 6.24074L40.7766 0.285315H44.9668L38.7974 11.7147H36.8717L30.6489 0.285315ZM29.5434 10.3239L30.2566 11.7147H34.1793L28.2061 0.285315H25.9059L20.0135 11.5266V8.57655H14.1116V0.285315H10.4741V11.7147H19.9148H20.0135H23.8376L24.5508 10.3239H29.5434ZM28.1882 7.68502H25.9059L27.0471 5.43836L28.1882 7.68502ZM0 0.285315V11.7147H3.60178V7.89899H7.68499L7.70282 4.84995H3.60178V3.4235H9.50371V0.285315H0Z" fill="black"/>
</svg>
