<svg width="24" height="24" viewBox="0 0 24 24" fill="none" xmlns="http://www.w3.org/2000/svg">
<path d="M8.29074 12.7098L5.69074 15.3098C5.3732 15.1349 5.02141 15.0311 4.65977 15.0057C4.29812 14.9802 3.93527 15.0338 3.59637 15.1625C3.25747 15.2913 2.95064 15.4923 2.69714 15.7514C2.44364 16.0106 2.24954 16.3218 2.12831 16.6635C2.00707 17.0052 1.96159 17.3691 1.99503 17.7301C2.02847 18.0911 2.14002 18.4405 2.32195 18.7541C2.50389 19.0677 2.75184 19.3379 3.04864 19.5461C3.34543 19.7543 3.68395 19.8955 4.04074 19.9598C4.11075 20.312 4.25579 20.6449 4.46599 20.936C4.67619 21.2271 4.94661 21.4694 5.25887 21.6466C5.57113 21.8238 5.9179 21.9317 6.27557 21.9629C6.63325 21.9941 6.99345 21.9479 7.33167 21.8274C7.66989 21.7069 7.97818 21.515 8.23559 21.2647C8.493 21.0144 8.69347 20.7116 8.82338 20.3769C8.95328 20.0422 9.00956 19.6834 8.9884 19.325C8.96724 18.9666 8.86913 18.6169 8.70074 18.2998L11.2907 15.7098M15.4007 15.6298C13.9041 16.11 12.4194 16.1216 11.1651 15.663C9.91078 15.2044 8.95316 14.2997 8.43314 13.0821C7.91313 11.8646 7.85819 10.3984 8.27642 8.89946C8.69465 7.4005 9.56395 5.94791 10.7564 4.75548C11.9488 3.56304 13.4014 2.69374 14.9004 2.27551C16.3993 1.85729 17.8655 1.91222 19.083 2.43224C20.3006 2.95225 21.2053 3.90988 21.6639 5.16418C22.1225 6.41848 22.1109 7.9032 21.6307 9.39983C20.9359 9.00349 20.055 8.90491 19.1362 9.12066C18.2173 9.33641 17.3165 9.85333 16.5854 10.5845C15.8542 11.3156 15.3373 12.2164 15.1216 13.1353C14.9058 14.0541 15.0044 14.935 15.4007 15.6298Z" stroke="black" stroke-width="2" stroke-linecap="round" stroke-linejoin="round"/>
</svg>
