<svg width="24" height="24" viewBox="0 0 24 24" fill="none" xmlns="http://www.w3.org/2000/svg">
<path d="M2.06251 12.3479C1.97916 12.1234 1.97916 11.8764 2.06251 11.6519C2.87421 9.68373 4.25202 8.00091 6.02128 6.81677C7.79053 5.63263 9.87155 5.00049 12.0005 5.00049C14.1295 5.00049 16.2105 5.63263 17.9797 6.81677C19.749 8.00091 21.1268 9.68373 21.9385 11.6519C22.0218 11.8764 22.0218 12.1234 21.9385 12.3479C21.1268 14.316 19.749 15.9988 17.9797 17.183C16.2105 18.3671 14.1295 18.9993 12.0005 18.9993C9.87155 18.9993 7.79053 18.3671 6.02128 17.183C4.25202 15.9988 2.87421 14.316 2.06251 12.3479Z" stroke="black" stroke-width="2" stroke-linecap="round" stroke-linejoin="round"/>
<path d="M12.0005 14.9999C13.6574 14.9999 15.0005 13.6567 15.0005 11.9999C15.0005 10.343 13.6574 8.99987 12.0005 8.99987C10.3437 8.99987 9.00051 10.343 9.00051 11.9999C9.00051 13.6567 10.3437 14.9999 12.0005 14.9999Z" stroke="black" stroke-width="2" stroke-linecap="round" stroke-linejoin="round"/>
</svg>
